  0
SECTION
  2
HEADER
  9
$ACADVER
  1
AC1014
  9
$HANDSEED
  5
FFFF
  9
$MEASUREMENT
 70
     1
  0
ENDSEC
  0
SECTION
  2
TABLES
  0
TABLE
  2
VPORT
  5
8
330
0
100
AcDbSymbolTable
 70
     4
  0
VPORT
  5
2E
330
8
100
AcDbSymbolTableRecord
100
AcDbViewportTableRecord
  2
*ACTIVE
 70
     0
 10
0.0
 20
0.0
 11
1.0
 21
1.0
 12
210.0
 22
148.5
 13
0.0
 23
0.0
 14
10.0
 24
10.0
 15
10.0
 25
10.0
 16
0.0
 26
0.0
 36
1.0
 17
0.0
 27
0.0
 37
0.0
 40
341.0
 41
1.24
 42
50.0
 43
0.0
 44
0.0
 50
0.0
 51
0.0
 71
     0
 72
   100
 73
     1
 74
     3
 75
     0
 76
     0
 77
     0
 78
     0
  0
ENDTAB
  0
TABLE
  2
LTYPE
  5
5
330
0
100
AcDbSymbolTable
 70
     1
  0
LTYPE
  5
14
330
5
100
AcDbSymbolTableRecord
100
AcDbLinetypeTableRecord
  2
BYBLOCK
 70
     0
  3

 72
    65
 73
     0
 40
0.0
  0
LTYPE
  5
15
330
5
100
AcDbSymbolTableRecord
100
AcDbLinetypeTableRecord
  2
BYLAYER
 70
     0
  3

 72
    65
 73
     0
 40
0.0
  0
LTYPE
  5
16
330
5
100
AcDbSymbolTableRecord
100
AcDbLinetypeTableRecord
  2
CONTINUOUS
 70
     0
  3
Solid line
 72
    65
 73
     0
 40
0.0
  0
ENDTAB
  0
TABLE
  2
LAYER
  5
2
100
AcDbSymbolTable
 70
1
  0
LAYER
  5
50
100
AcDbSymbolTableRecord
100
AcDbLayerTableRecord
  2
0
 70
0
  6
CONTINUOUS
  0
ENDTAB
  0
TABLE
  2
STYLE
  5
3
330
0
100
AcDbSymbolTable
 70
     1
  0
STYLE
  5
11
330
3
100
AcDbSymbolTableRecord
100
AcDbTextStyleTableRecord
  2
STANDARD
 70
     0
 40
0.0
 41
1.0
 50
0.0
 71
     0
 42
2.5
  3
txt
  4

  0
ENDTAB
  0
TABLE
  2
VIEW
  5
6
330
0
100
AcDbSymbolTable
 70
     0
  0
ENDTAB
  0
TABLE
  2
UCS
  5
7
330
0
100
AcDbSymbolTable
 70
     0
  0
ENDTAB
  0
TABLE
  2
APPID
  5
9
330
0
100
AcDbSymbolTable
 70
     2
  0
APPID
  5
12
330
9
100
AcDbSymbolTableRecord
100
AcDbRegAppTableRecord
  2
ACAD
 70
     0
  0
ENDTAB
  0
TABLE
  2
DIMSTYLE
  5
A
330
0
100
AcDbSymbolTable
 70
     1
  0
DIMSTYLE
105
27
330
A
100
AcDbSymbolTableRecord
100
AcDbDimStyleTableRecord
  2
ISO-25
 70
     0
  3

  4

  5

  6

  7

 40
1.0
 41
2.5
 42
0.625
 43
3.75
 44
1.25
 45
0.0
 46
0.0
 47
0.0
 48
0.0
140
2.5
141
2.5
142
0.0
143
0.03937007874016
144
1.0
145
0.0
146
1.0
147
0.625
 71
     0
 72
     0
 73
     0
 74
     0
 75
     0
 76
     0
 77
     1
 78
     8
170
     0
171
     3
172
     1
173
     0
174
     0
175
     0
176
     0
177
     0
178
     0
270
     2
271
     2
272
     2
273
     2
274
     3
340
11
275
     0
280
     0
281
     0
282
     0
283
     0
284
     8
285
     0
286
     0
287
     3
288
     0
  0
ENDTAB
  0
TABLE
  2
BLOCK_RECORD
  5
1
330
0
100
AcDbSymbolTable
 70
     1
  0
BLOCK_RECORD
  5
1F
330
1
100
AcDbSymbolTableRecord
100
AcDbBlockTableRecord
  2
*MODEL_SPACE
  0
BLOCK_RECORD
  5
1B
330
1
100
AcDbSymbolTableRecord
100
AcDbBlockTableRecord
  2
*PAPER_SPACE
  0
ENDTAB
  0
ENDSEC
  0
SECTION
  2
BLOCKS
  0
BLOCK
  5
20
330
1F
100
AcDbEntity
  8
0
100
AcDbBlockBegin
  2
*MODEL_SPACE
 70
     0
 10
0.0
 20
0.0
 30
0.0
  3
*MODEL_SPACE
  1

  0
ENDBLK
  5
21
330
1F
100
AcDbEntity
  8
0
100
AcDbBlockEnd
  0
BLOCK
  5
1C
330
1B
100
AcDbEntity
 67
     1
  8
0
100
AcDbBlockBegin
  2
*PAPER_SPACE
  1

  0
ENDBLK
  5
1D
330
1B
100
AcDbEntity
 67
     1
  8
0
100
AcDbBlockEnd
  0
ENDSEC
  0
SECTION
  2
ENTITIES
  0
SPLINE
  5
100
100
AcDbEntity
  8
0
 62
7
100
AcDbSpline
 70
8
 71
3
 72
8
 73
4
 74
0
 40
0
 40
0
 40
0
 40
0
 40
1
 40
1
 40
1
 40
1
 10
15.432598
 20
12.820761
 30
0.0
 10
15.432598
 20
13.753882
 30
0.0
 10
14.934784
 20
14.616120
 30
0.0
 10
14.126678
 20
15.082681
 30
0.0
  0
SPLINE
  5
101
100
AcDbEntity
  8
0
 62
7
100
AcDbSpline
 70
8
 71
3
 72
8
 73
4
 74
0
 40
0
 40
0
 40
0
 40
0
 40
1
 40
1
 40
1
 40
1
 10
14.126678
 20
15.082681
 30
0.0
 10
13.318572
 20
15.549241
 30
0.0
 10
12.322945
 20
15.549241
 30
0.0
 10
11.514839
 20
15.082681
 30
0.0
  0
SPLINE
  5
102
100
AcDbEntity
  8
0
 62
7
100
AcDbSpline
 70
8
 71
3
 72
8
 73
4
 74
0
 40
0
 40
0
 40
0
 40
0
 40
1
 40
1
 40
1
 40
1
 10
11.514839
 20
15.082681
 30
0.0
 10
10.706733
 20
14.616120
 30
0.0
 10
10.208919
 20
13.753882
 30
0.0
 10
10.208919
 20
12.820761
 30
0.0
  0
SPLINE
  5
103
100
AcDbEntity
  8
0
 62
7
100
AcDbSpline
 70
8
 71
3
 72
8
 73
4
 74
0
 40
0
 40
0
 40
0
 40
0
 40
1
 40
1
 40
1
 40
1
 10
10.208919
 20
12.820761
 30
0.0
 10
10.208919
 20
11.887641
 30
0.0
 10
10.706733
 20
11.025402
 30
0.0
 10
11.514839
 20
10.558842
 30
0.0
  0
SPLINE
  5
104
100
AcDbEntity
  8
0
 62
7
100
AcDbSpline
 70
8
 71
3
 72
8
 73
4
 74
0
 40
0
 40
0
 40
0
 40
0
 40
1
 40
1
 40
1
 40
1
 10
11.514839
 20
10.558842
 30
0.0
 10
12.322945
 20
10.092281
 30
0.0
 10
13.318572
 20
10.092281
 30
0.0
 10
14.126678
 20
10.558842
 30
0.0
  0
SPLINE
  5
105
100
AcDbEntity
  8
0
 62
7
100
AcDbSpline
 70
8
 71
3
 72
8
 73
4
 74
0
 40
0
 40
0
 40
0
 40
0
 40
1
 40
1
 40
1
 40
1
 10
14.126678
 20
10.558842
 30
0.0
 10
14.934784
 20
11.025402
 30
0.0
 10
15.432598
 20
11.887641
 30
0.0
 10
15.432598
 20
12.820761
 30
0.0
  0
SPLINE
  5
106
100
AcDbEntity
  8
0
 62
7
100
AcDbSpline
 70
8
 71
3
 72
8
 73
4
 74
0
 40
0
 40
0
 40
0
 40
0
 40
1
 40
1
 40
1
 40
1
 10
244.032598
 20
66.923449
 30
0.0
 10
244.032598
 20
67.856569
 30
0.0
 10
243.534784
 20
68.718808
 30
0.0
 10
242.726678
 20
69.185369
 30
0.0
  0
SPLINE
  5
107
100
AcDbEntity
  8
0
 62
7
100
AcDbSpline
 70
8
 71
3
 72
8
 73
4
 74
0
 40
0
 40
0
 40
0
 40
0
 40
1
 40
1
 40
1
 40
1
 10
242.726678
 20
69.185369
 30
0.0
 10
241.918572
 20
69.651929
 30
0.0
 10
240.922945
 20
69.651929
 30
0.0
 10
240.114839
 20
69.185369
 30
0.0
  0
SPLINE
  5
108
100
AcDbEntity
  8
0
 62
7
100
AcDbSpline
 70
8
 71
3
 72
8
 73
4
 74
0
 40
0
 40
0
 40
0
 40
0
 40
1
 40
1
 40
1
 40
1
 10
240.114839
 20
69.185369
 30
0.0
 10
239.306733
 20
68.718808
 30
0.0
 10
238.808919
 20
67.856569
 30
0.0
 10
238.808919
 20
66.923449
 30
0.0
  0
SPLINE
  5
109
100
AcDbEntity
  8
0
 62
7
100
AcDbSpline
 70
8
 71
3
 72
8
 73
4
 74
0
 40
0
 40
0
 40
0
 40
0
 40
1
 40
1
 40
1
 40
1
 10
238.808919
 20
66.923449
 30
0.0
 10
238.808919
 20
65.990329
 30
0.0
 10
239.306733
 20
65.128090
 30
0.0
 10
240.114839
 20
64.661530
 30
0.0
  0
SPLINE
  5
10a
100
AcDbEntity
  8
0
 62
7
100
AcDbSpline
 70
8
 71
3
 72
8
 73
4
 74
0
 40
0
 40
0
 40
0
 40
0
 40
1
 40
1
 40
1
 40
1
 10
240.114839
 20
64.661530
 30
0.0
 10
240.922945
 20
64.194969
 30
0.0
 10
241.918572
 20
64.194969
 30
0.0
 10
242.726678
 20
64.661530
 30
0.0
  0
SPLINE
  5
10b
100
AcDbEntity
  8
0
 62
7
100
AcDbSpline
 70
8
 71
3
 72
8
 73
4
 74
0
 40
0
 40
0
 40
0
 40
0
 40
1
 40
1
 40
1
 40
1
 10
242.726678
 20
64.661530
 30
0.0
 10
243.534784
 20
65.128090
 30
0.0
 10
244.032598
 20
65.990329
 30
0.0
 10
244.032598
 20
66.923449
 30
0.0
  0
LWPOLYLINE
  5
10c
100
AcDbEntity
  8
0
 62
7
100
AcDbPolyline
 90
1
 70
1
 10
15.432598
 20
12.820761
 30
0.0
  0
SPLINE
  5
10d
100
AcDbEntity
  8
0
 62
7
100
AcDbSpline
 70
8
 71
3
 72
8
 73
4
 74
0
 40
0
 40
0
 40
0
 40
0
 40
1
 40
1
 40
1
 40
1
 10
106.483258
 20
17.710949
 30
0.0
 10
106.483258
 20
18.278108
 30
0.0
 10
106.180683
 20
18.802185
 30
0.0
 10
105.689508
 20
19.085764
 30
0.0
  0
SPLINE
  5
10e
100
AcDbEntity
  8
0
 62
7
100
AcDbSpline
 70
8
 71
3
 72
8
 73
4
 74
0
 40
0
 40
0
 40
0
 40
0
 40
1
 40
1
 40
1
 40
1
 10
105.689508
 20
19.085764
 30
0.0
 10
105.198334
 20
19.369344
 30
0.0
 10
104.593183
 20
19.369344
 30
0.0
 10
104.102008
 20
19.085764
 30
0.0
  0
SPLINE
  5
10f
100
AcDbEntity
  8
0
 62
7
100
AcDbSpline
 70
8
 71
3
 72
8
 73
4
 74
0
 40
0
 40
0
 40
0
 40
0
 40
1
 40
1
 40
1
 40
1
 10
104.102008
 20
19.085764
 30
0.0
 10
103.610834
 20
18.802185
 30
0.0
 10
103.308258
 20
18.278108
 30
0.0
 10
103.308258
 20
17.710949
 30
0.0
  0
SPLINE
  5
110
100
AcDbEntity
  8
0
 62
7
100
AcDbSpline
 70
8
 71
3
 72
8
 73
4
 74
0
 40
0
 40
0
 40
0
 40
0
 40
1
 40
1
 40
1
 40
1
 10
103.308258
 20
17.710949
 30
0.0
 10
103.308258
 20
17.143790
 30
0.0
 10
103.610834
 20
16.619713
 30
0.0
 10
104.102008
 20
16.336134
 30
0.0
  0
SPLINE
  5
111
100
AcDbEntity
  8
0
 62
7
100
AcDbSpline
 70
8
 71
3
 72
8
 73
4
 74
0
 40
0
 40
0
 40
0
 40
0
 40
1
 40
1
 40
1
 40
1
 10
104.102008
 20
16.336134
 30
0.0
 10
104.593183
 20
16.052554
 30
0.0
 10
105.198334
 20
16.052554
 30
0.0
 10
105.689508
 20
16.336134
 30
0.0
  0
SPLINE
  5
112
100
AcDbEntity
  8
0
 62
7
100
AcDbSpline
 70
8
 71
3
 72
8
 73
4
 74
0
 40
0
 40
0
 40
0
 40
0
 40
1
 40
1
 40
1
 40
1
 10
105.689508
 20
16.336134
 30
0.0
 10
106.180683
 20
16.619713
 30
0.0
 10
106.483258
 20
17.143790
 30
0.0
 10
106.483258
 20
17.710949
 30
0.0
  0
LWPOLYLINE
  5
113
100
AcDbEntity
  8
0
 62
7
100
AcDbPolyline
 90
1
 70
1
 10
244.032598
 20
66.923449
 30
0.0
  0
SPLINE
  5
114
100
AcDbEntity
  8
0
 62
7
100
AcDbSpline
 70
8
 71
3
 72
8
 73
4
 74
0
 40
0
 40
0
 40
0
 40
0
 40
1
 40
1
 40
1
 40
1
 10
71.558258
 20
17.710949
 30
0.0
 10
71.558258
 20
18.278108
 30
0.0
 10
71.255683
 20
18.802185
 30
0.0
 10
70.764508
 20
19.085764
 30
0.0
  0
SPLINE
  5
115
100
AcDbEntity
  8
0
 62
7
100
AcDbSpline
 70
8
 71
3
 72
8
 73
4
 74
0
 40
0
 40
0
 40
0
 40
0
 40
1
 40
1
 40
1
 40
1
 10
70.764508
 20
19.085764
 30
0.0
 10
70.273334
 20
19.369344
 30
0.0
 10
69.668183
 20
19.369344
 30
0.0
 10
69.177008
 20
19.085764
 30
0.0
  0
SPLINE
  5
116
100
AcDbEntity
  8
0
 62
7
100
AcDbSpline
 70
8
 71
3
 72
8
 73
4
 74
0
 40
0
 40
0
 40
0
 40
0
 40
1
 40
1
 40
1
 40
1
 10
69.177008
 20
19.085764
 30
0.0
 10
68.685834
 20
18.802185
 30
0.0
 10
68.383258
 20
18.278108
 30
0.0
 10
68.383258
 20
17.710949
 30
0.0
  0
SPLINE
  5
117
100
AcDbEntity
  8
0
 62
7
100
AcDbSpline
 70
8
 71
3
 72
8
 73
4
 74
0
 40
0
 40
0
 40
0
 40
0
 40
1
 40
1
 40
1
 40
1
 10
68.383258
 20
17.710949
 30
0.0
 10
68.383258
 20
17.143790
 30
0.0
 10
68.685834
 20
16.619713
 30
0.0
 10
69.177008
 20
16.336134
 30
0.0
  0
SPLINE
  5
118
100
AcDbEntity
  8
0
 62
7
100
AcDbSpline
 70
8
 71
3
 72
8
 73
4
 74
0
 40
0
 40
0
 40
0
 40
0
 40
1
 40
1
 40
1
 40
1
 10
69.177008
 20
16.336134
 30
0.0
 10
69.668183
 20
16.052554
 30
0.0
 10
70.273334
 20
16.052554
 30
0.0
 10
70.764508
 20
16.336134
 30
0.0
  0
SPLINE
  5
119
100
AcDbEntity
  8
0
 62
7
100
AcDbSpline
 70
8
 71
3
 72
8
 73
4
 74
0
 40
0
 40
0
 40
0
 40
0
 40
1
 40
1
 40
1
 40
1
 10
70.764508
 20
16.336134
 30
0.0
 10
71.255683
 20
16.619713
 30
0.0
 10
71.558258
 20
17.143790
 30
0.0
 10
71.558258
 20
17.710949
 30
0.0
  0
LWPOLYLINE
  5
11a
100
AcDbEntity
  8
0
 62
7
100
AcDbPolyline
 90
1
 70
1
 10
106.483258
 20
17.710949
 30
0.0
  0
SPLINE
  5
11b
100
AcDbEntity
  8
0
 62
7
100
AcDbSpline
 70
8
 71
3
 72
8
 73
4
 74
0
 40
0
 40
0
 40
0
 40
0
 40
1
 40
1
 40
1
 40
1
 10
225.545758
 20
49.460949
 30
0.0
 10
225.545758
 20
50.595267
 30
0.0
 10
224.940607
 20
51.643421
 30
0.0
 10
223.958258
 20
52.210580
 30
0.0
  0
SPLINE
  5
11c
100
AcDbEntity
  8
0
 62
7
100
AcDbSpline
 70
8
 71
3
 72
8
 73
4
 74
0
 40
0
 40
0
 40
0
 40
0
 40
1
 40
1
 40
1
 40
1
 10
223.958258
 20
52.210580
 30
0.0
 10
222.975910
 20
52.777739
 30
0.0
 10
221.765607
 20
52.777739
 30
0.0
 10
220.783258
 20
52.210580
 30
0.0
  0
SPLINE
  5
11d
100
AcDbEntity
  8
0
 62
7
100
AcDbSpline
 70
8
 71
3
 72
8
 73
4
 74
0
 40
0
 40
0
 40
0
 40
0
 40
1
 40
1
 40
1
 40
1
 10
220.783258
 20
52.210580
 30
0.0
 10
219.800910
 20
51.643421
 30
0.0
 10
219.195758
 20
50.595267
 30
0.0
 10
219.195758
 20
49.460949
 30
0.0
  0
SPLINE
  5
11e
100
AcDbEntity
  8
0
 62
7
100
AcDbSpline
 70
8
 71
3
 72
8
 73
4
 74
0
 40
0
 40
0
 40
0
 40
0
 40
1
 40
1
 40
1
 40
1
 10
219.195758
 20
49.460949
 30
0.0
 10
219.195758
 20
48.326631
 30
0.0
 10
219.800910
 20
47.278478
 30
0.0
 10
220.783258
 20
46.711318
 30
0.0
  0
SPLINE
  5
11f
100
AcDbEntity
  8
0
 62
7
100
AcDbSpline
 70
8
 71
3
 72
8
 73
4
 74
0
 40
0
 40
0
 40
0
 40
0
 40
1
 40
1
 40
1
 40
1
 10
220.783258
 20
46.711318
 30
0.0
 10
221.765607
 20
46.144159
 30
0.0
 10
222.975910
 20
46.144159
 30
0.0
 10
223.958258
 20
46.711318
 30
0.0
  0
SPLINE
  5
120
100
AcDbEntity
  8
0
 62
7
100
AcDbSpline
 70
8
 71
3
 72
8
 73
4
 74
0
 40
0
 40
0
 40
0
 40
0
 40
1
 40
1
 40
1
 40
1
 10
223.958258
 20
46.711318
 30
0.0
 10
224.940607
 20
47.278478
 30
0.0
 10
225.545758
 20
48.326631
 30
0.0
 10
225.545758
 20
49.460949
 30
0.0
  0
LWPOLYLINE
  5
121
100
AcDbEntity
  8
0
 62
7
100
AcDbPolyline
 90
1
 70
1
 10
71.558258
 20
17.710949
 30
0.0
  0
SPLINE
  5
122
100
AcDbEntity
  8
0
 62
7
100
AcDbSpline
 70
8
 71
3
 72
8
 73
4
 74
0
 40
0
 40
0
 40
0
 40
0
 40
1
 40
1
 40
1
 40
1
 10
203.320758
 20
49.460949
 30
0.0
 10
203.320758
 20
50.595267
 30
0.0
 10
202.715607
 20
51.643421
 30
0.0
 10
201.733258
 20
52.210580
 30
0.0
  0
SPLINE
  5
123
100
AcDbEntity
  8
0
 62
7
100
AcDbSpline
 70
8
 71
3
 72
8
 73
4
 74
0
 40
0
 40
0
 40
0
 40
0
 40
1
 40
1
 40
1
 40
1
 10
201.733258
 20
52.210580
 30
0.0
 10
200.750910
 20
52.777739
 30
0.0
 10
199.540607
 20
52.777739
 30
0.0
 10
198.558258
 20
52.210580
 30
0.0
  0
SPLINE
  5
124
100
AcDbEntity
  8
0
 62
7
100
AcDbSpline
 70
8
 71
3
 72
8
 73
4
 74
0
 40
0
 40
0
 40
0
 40
0
 40
1
 40
1
 40
1
 40
1
 10
198.558258
 20
52.210580
 30
0.0
 10
197.575910
 20
51.643421
 30
0.0
 10
196.970758
 20
50.595267
 30
0.0
 10
196.970758
 20
49.460949
 30
0.0
  0
SPLINE
  5
125
100
AcDbEntity
  8
0
 62
7
100
AcDbSpline
 70
8
 71
3
 72
8
 73
4
 74
0
 40
0
 40
0
 40
0
 40
0
 40
1
 40
1
 40
1
 40
1
 10
196.970758
 20
49.460949
 30
0.0
 10
196.970758
 20
48.326631
 30
0.0
 10
197.575910
 20
47.278478
 30
0.0
 10
198.558258
 20
46.711318
 30
0.0
  0
SPLINE
  5
126
100
AcDbEntity
  8
0
 62
7
100
AcDbSpline
 70
8
 71
3
 72
8
 73
4
 74
0
 40
0
 40
0
 40
0
 40
0
 40
1
 40
1
 40
1
 40
1
 10
198.558258
 20
46.711318
 30
0.0
 10
199.540607
 20
46.144159
 30
0.0
 10
200.750910
 20
46.144159
 30
0.0
 10
201.733258
 20
46.711318
 30
0.0
  0
SPLINE
  5
127
100
AcDbEntity
  8
0
 62
7
100
AcDbSpline
 70
8
 71
3
 72
8
 73
4
 74
0
 40
0
 40
0
 40
0
 40
0
 40
1
 40
1
 40
1
 40
1
 10
201.733258
 20
46.711318
 30
0.0
 10
202.715607
 20
47.278478
 30
0.0
 10
203.320758
 20
48.326631
 30
0.0
 10
203.320758
 20
49.460949
 30
0.0
  0
LWPOLYLINE
  5
128
100
AcDbEntity
  8
0
 62
7
100
AcDbPolyline
 90
1
 70
1
 10
225.545758
 20
49.460949
 30
0.0
  0
SPLINE
  5
129
100
AcDbEntity
  8
0
 62
7
100
AcDbSpline
 70
8
 71
3
 72
8
 73
4
 74
0
 40
0
 40
0
 40
0
 40
0
 40
1
 40
1
 40
1
 40
1
 10
106.483258
 20
49.460949
 30
0.0
 10
106.483258
 20
50.028108
 30
0.0
 10
106.180683
 20
50.552185
 30
0.0
 10
105.689508
 20
50.835764
 30
0.0
  0
SPLINE
  5
12a
100
AcDbEntity
  8
0
 62
7
100
AcDbSpline
 70
8
 71
3
 72
8
 73
4
 74
0
 40
0
 40
0
 40
0
 40
0
 40
1
 40
1
 40
1
 40
1
 10
105.689508
 20
50.835764
 30
0.0
 10
105.198334
 20
51.119344
 30
0.0
 10
104.593183
 20
51.119344
 30
0.0
 10
104.102008
 20
50.835764
 30
0.0
  0
SPLINE
  5
12b
100
AcDbEntity
  8
0
 62
7
100
AcDbSpline
 70
8
 71
3
 72
8
 73
4
 74
0
 40
0
 40
0
 40
0
 40
0
 40
1
 40
1
 40
1
 40
1
 10
104.102008
 20
50.835764
 30
0.0
 10
103.610834
 20
50.552185
 30
0.0
 10
103.308258
 20
50.028108
 30
0.0
 10
103.308258
 20
49.460949
 30
0.0
  0
SPLINE
  5
12c
100
AcDbEntity
  8
0
 62
7
100
AcDbSpline
 70
8
 71
3
 72
8
 73
4
 74
0
 40
0
 40
0
 40
0
 40
0
 40
1
 40
1
 40
1
 40
1
 10
103.308258
 20
49.460949
 30
0.0
 10
103.308258
 20
48.893790
 30
0.0
 10
103.610834
 20
48.369713
 30
0.0
 10
104.102008
 20
48.086134
 30
0.0
  0
SPLINE
  5
12d
100
AcDbEntity
  8
0
 62
7
100
AcDbSpline
 70
8
 71
3
 72
8
 73
4
 74
0
 40
0
 40
0
 40
0
 40
0
 40
1
 40
1
 40
1
 40
1
 10
104.102008
 20
48.086134
 30
0.0
 10
104.593183
 20
47.802554
 30
0.0
 10
105.198334
 20
47.802554
 30
0.0
 10
105.689508
 20
48.086134
 30
0.0
  0
SPLINE
  5
12e
100
AcDbEntity
  8
0
 62
7
100
AcDbSpline
 70
8
 71
3
 72
8
 73
4
 74
0
 40
0
 40
0
 40
0
 40
0
 40
1
 40
1
 40
1
 40
1
 10
105.689508
 20
48.086134
 30
0.0
 10
106.180683
 20
48.369713
 30
0.0
 10
106.483258
 20
48.893790
 30
0.0
 10
106.483258
 20
49.460949
 30
0.0
  0
LWPOLYLINE
  5
12f
100
AcDbEntity
  8
0
 62
7
100
AcDbPolyline
 90
1
 70
1
 10
203.320758
 20
49.460949
 30
0.0
  0
SPLINE
  5
130
100
AcDbEntity
  8
0
 62
7
100
AcDbSpline
 70
8
 71
3
 72
8
 73
4
 74
0
 40
0
 40
0
 40
0
 40
0
 40
1
 40
1
 40
1
 40
1
 10
141.408258
 20
49.460949
 30
0.0
 10
141.408258
 20
50.028108
 30
0.0
 10
141.105683
 20
50.552185
 30
0.0
 10
140.614508
 20
50.835764
 30
0.0
  0
SPLINE
  5
131
100
AcDbEntity
  8
0
 62
7
100
AcDbSpline
 70
8
 71
3
 72
8
 73
4
 74
0
 40
0
 40
0
 40
0
 40
0
 40
1
 40
1
 40
1
 40
1
 10
140.614508
 20
50.835764
 30
0.0
 10
140.123334
 20
51.119344
 30
0.0
 10
139.518183
 20
51.119344
 30
0.0
 10
139.027008
 20
50.835764
 30
0.0
  0
SPLINE
  5
132
100
AcDbEntity
  8
0
 62
7
100
AcDbSpline
 70
8
 71
3
 72
8
 73
4
 74
0
 40
0
 40
0
 40
0
 40
0
 40
1
 40
1
 40
1
 40
1
 10
139.027008
 20
50.835764
 30
0.0
 10
138.535834
 20
50.552185
 30
0.0
 10
138.233258
 20
50.028108
 30
0.0
 10
138.233258
 20
49.460949
 30
0.0
  0
SPLINE
  5
133
100
AcDbEntity
  8
0
 62
7
100
AcDbSpline
 70
8
 71
3
 72
8
 73
4
 74
0
 40
0
 40
0
 40
0
 40
0
 40
1
 40
1
 40
1
 40
1
 10
138.233258
 20
49.460949
 30
0.0
 10
138.233258
 20
48.893790
 30
0.0
 10
138.535834
 20
48.369713
 30
0.0
 10
139.027008
 20
48.086134
 30
0.0
  0
SPLINE
  5
134
100
AcDbEntity
  8
0
 62
7
100
AcDbSpline
 70
8
 71
3
 72
8
 73
4
 74
0
 40
0
 40
0
 40
0
 40
0
 40
1
 40
1
 40
1
 40
1
 10
139.027008
 20
48.086134
 30
0.0
 10
139.518183
 20
47.802554
 30
0.0
 10
140.123334
 20
47.802554
 30
0.0
 10
140.614508
 20
48.086134
 30
0.0
  0
SPLINE
  5
135
100
AcDbEntity
  8
0
 62
7
100
AcDbSpline
 70
8
 71
3
 72
8
 73
4
 74
0
 40
0
 40
0
 40
0
 40
0
 40
1
 40
1
 40
1
 40
1
 10
140.614508
 20
48.086134
 30
0.0
 10
141.105683
 20
48.369713
 30
0.0
 10
141.408258
 20
48.893790
 30
0.0
 10
141.408258
 20
49.460949
 30
0.0
  0
LWPOLYLINE
  5
136
100
AcDbEntity
  8
0
 62
7
100
AcDbPolyline
 90
1
 70
1
 10
106.483258
 20
49.460949
 30
0.0
  0
SPLINE
  5
137
100
AcDbEntity
  8
0
 62
7
100
AcDbSpline
 70
8
 71
3
 72
8
 73
4
 74
0
 40
0
 40
0
 40
0
 40
0
 40
1
 40
1
 40
1
 40
1
 10
176.333258
 20
49.460949
 30
0.0
 10
176.333258
 20
50.028108
 30
0.0
 10
176.030683
 20
50.552185
 30
0.0
 10
175.539508
 20
50.835764
 30
0.0
  0
SPLINE
  5
138
100
AcDbEntity
  8
0
 62
7
100
AcDbSpline
 70
8
 71
3
 72
8
 73
4
 74
0
 40
0
 40
0
 40
0
 40
0
 40
1
 40
1
 40
1
 40
1
 10
175.539508
 20
50.835764
 30
0.0
 10
175.048334
 20
51.119344
 30
0.0
 10
174.443183
 20
51.119344
 30
0.0
 10
173.952008
 20
50.835764
 30
0.0
  0
SPLINE
  5
139
100
AcDbEntity
  8
0
 62
7
100
AcDbSpline
 70
8
 71
3
 72
8
 73
4
 74
0
 40
0
 40
0
 40
0
 40
0
 40
1
 40
1
 40
1
 40
1
 10
173.952008
 20
50.835764
 30
0.0
 10
173.460834
 20
50.552185
 30
0.0
 10
173.158258
 20
50.028108
 30
0.0
 10
173.158258
 20
49.460949
 30
0.0
  0
SPLINE
  5
13a
100
AcDbEntity
  8
0
 62
7
100
AcDbSpline
 70
8
 71
3
 72
8
 73
4
 74
0
 40
0
 40
0
 40
0
 40
0
 40
1
 40
1
 40
1
 40
1
 10
173.158258
 20
49.460949
 30
0.0
 10
173.158258
 20
48.893790
 30
0.0
 10
173.460834
 20
48.369713
 30
0.0
 10
173.952008
 20
48.086134
 30
0.0
  0
SPLINE
  5
13b
100
AcDbEntity
  8
0
 62
7
100
AcDbSpline
 70
8
 71
3
 72
8
 73
4
 74
0
 40
0
 40
0
 40
0
 40
0
 40
1
 40
1
 40
1
 40
1
 10
173.952008
 20
48.086134
 30
0.0
 10
174.443183
 20
47.802554
 30
0.0
 10
175.048334
 20
47.802554
 30
0.0
 10
175.539508
 20
48.086134
 30
0.0
  0
SPLINE
  5
13c
100
AcDbEntity
  8
0
 62
7
100
AcDbSpline
 70
8
 71
3
 72
8
 73
4
 74
0
 40
0
 40
0
 40
0
 40
0
 40
1
 40
1
 40
1
 40
1
 10
175.539508
 20
48.086134
 30
0.0
 10
176.030683
 20
48.369713
 30
0.0
 10
176.333258
 20
48.893790
 30
0.0
 10
176.333258
 20
49.460949
 30
0.0
  0
LWPOLYLINE
  5
13d
100
AcDbEntity
  8
0
 62
7
100
AcDbPolyline
 90
1
 70
1
 10
141.408258
 20
49.460949
 30
0.0
  0
SPLINE
  5
13e
100
AcDbEntity
  8
0
 62
7
100
AcDbSpline
 70
8
 71
3
 72
8
 73
4
 74
0
 40
0
 40
0
 40
0
 40
0
 40
1
 40
1
 40
1
 40
1
 10
34.252008
 20
49.460949
 30
0.0
 10
34.252008
 20
52.013165
 30
0.0
 10
32.890417
 20
54.371510
 30
0.0
 10
30.680133
 20
55.647618
 30
0.0
  0
SPLINE
  5
13f
100
AcDbEntity
  8
0
 62
7
100
AcDbSpline
 70
8
 71
3
 72
8
 73
4
 74
0
 40
0
 40
0
 40
0
 40
0
 40
1
 40
1
 40
1
 40
1
 10
30.680133
 20
55.647618
 30
0.0
 10
28.469850
 20
56.923726
 30
0.0
 10
25.746667
 20
56.923726
 30
0.0
 10
23.536383
 20
55.647618
 30
0.0
  0
SPLINE
  5
140
100
AcDbEntity
  8
0
 62
7
100
AcDbSpline
 70
8
 71
3
 72
8
 73
4
 74
0
 40
0
 40
0
 40
0
 40
0
 40
1
 40
1
 40
1
 40
1
 10
23.536383
 20
55.647618
 30
0.0
 10
21.326100
 20
54.371510
 30
0.0
 10
19.964508
 20
52.013165
 30
0.0
 10
19.964508
 20
49.460949
 30
0.0
  0
SPLINE
  5
141
100
AcDbEntity
  8
0
 62
7
100
AcDbSpline
 70
8
 71
3
 72
8
 73
4
 74
0
 40
0
 40
0
 40
0
 40
0
 40
1
 40
1
 40
1
 40
1
 10
19.964508
 20
49.460949
 30
0.0
 10
19.964508
 20
46.908733
 30
0.0
 10
21.326100
 20
44.550388
 30
0.0
 10
23.536383
 20
43.274280
 30
0.0
  0
SPLINE
  5
142
100
AcDbEntity
  8
0
 62
7
100
AcDbSpline
 70
8
 71
3
 72
8
 73
4
 74
0
 40
0
 40
0
 40
0
 40
0
 40
1
 40
1
 40
1
 40
1
 10
23.536383
 20
43.274280
 30
0.0
 10
25.746667
 20
41.998172
 30
0.0
 10
28.469850
 20
41.998172
 30
0.0
 10
30.680133
 20
43.274280
 30
0.0
  0
SPLINE
  5
143
100
AcDbEntity
  8
0
 62
7
100
AcDbSpline
 70
8
 71
3
 72
8
 73
4
 74
0
 40
0
 40
0
 40
0
 40
0
 40
1
 40
1
 40
1
 40
1
 10
30.680133
 20
43.274280
 30
0.0
 10
32.890417
 20
44.550388
 30
0.0
 10
34.252008
 20
46.908733
 30
0.0
 10
34.252008
 20
49.460949
 30
0.0
  0
LWPOLYLINE
  5
144
100
AcDbEntity
  8
0
 62
7
100
AcDbPolyline
 90
1
 70
1
 10
176.333258
 20
49.460949
 30
0.0
  0
SPLINE
  5
145
100
AcDbEntity
  8
0
 62
7
100
AcDbSpline
 70
8
 71
3
 72
8
 73
4
 74
0
 40
0
 40
0
 40
0
 40
0
 40
1
 40
1
 40
1
 40
1
 10
141.408258
 20
17.710949
 30
0.0
 10
141.408258
 20
18.278108
 30
0.0
 10
141.105683
 20
18.802185
 30
0.0
 10
140.614508
 20
19.085764
 30
0.0
  0
SPLINE
  5
146
100
AcDbEntity
  8
0
 62
7
100
AcDbSpline
 70
8
 71
3
 72
8
 73
4
 74
0
 40
0
 40
0
 40
0
 40
0
 40
1
 40
1
 40
1
 40
1
 10
140.614508
 20
19.085764
 30
0.0
 10
140.123334
 20
19.369344
 30
0.0
 10
139.518183
 20
19.369344
 30
0.0
 10
139.027008
 20
19.085764
 30
0.0
  0
SPLINE
  5
147
100
AcDbEntity
  8
0
 62
7
100
AcDbSpline
 70
8
 71
3
 72
8
 73
4
 74
0
 40
0
 40
0
 40
0
 40
0
 40
1
 40
1
 40
1
 40
1
 10
139.027008
 20
19.085764
 30
0.0
 10
138.535834
 20
18.802185
 30
0.0
 10
138.233258
 20
18.278108
 30
0.0
 10
138.233258
 20
17.710949
 30
0.0
  0
SPLINE
  5
148
100
AcDbEntity
  8
0
 62
7
100
AcDbSpline
 70
8
 71
3
 72
8
 73
4
 74
0
 40
0
 40
0
 40
0
 40
0
 40
1
 40
1
 40
1
 40
1
 10
138.233258
 20
17.710949
 30
0.0
 10
138.233258
 20
17.143790
 30
0.0
 10
138.535834
 20
16.619713
 30
0.0
 10
139.027008
 20
16.336134
 30
0.0
  0
SPLINE
  5
149
100
AcDbEntity
  8
0
 62
7
100
AcDbSpline
 70
8
 71
3
 72
8
 73
4
 74
0
 40
0
 40
0
 40
0
 40
0
 40
1
 40
1
 40
1
 40
1
 10
139.027008
 20
16.336134
 30
0.0
 10
139.518183
 20
16.052554
 30
0.0
 10
140.123334
 20
16.052554
 30
0.0
 10
140.614508
 20
16.336134
 30
0.0
  0
SPLINE
  5
14a
100
AcDbEntity
  8
0
 62
7
100
AcDbSpline
 70
8
 71
3
 72
8
 73
4
 74
0
 40
0
 40
0
 40
0
 40
0
 40
1
 40
1
 40
1
 40
1
 10
140.614508
 20
16.336134
 30
0.0
 10
141.105683
 20
16.619713
 30
0.0
 10
141.408258
 20
17.143790
 30
0.0
 10
141.408258
 20
17.710949
 30
0.0
  0
LWPOLYLINE
  5
14b
100
AcDbEntity
  8
0
 62
7
100
AcDbPolyline
 90
1
 70
1
 10
34.252008
 20
49.460949
 30
0.0
  0
SPLINE
  5
14c
100
AcDbEntity
  8
0
 62
7
100
AcDbSpline
 70
8
 71
3
 72
8
 73
4
 74
0
 40
0
 40
0
 40
0
 40
0
 40
1
 40
1
 40
1
 40
1
 10
30.283258
 20
24.060949
 30
0.0
 10
30.283258
 20
25.195267
 30
0.0
 10
29.678107
 20
26.243421
 30
0.0
 10
28.695758
 20
26.810580
 30
0.0
  0
SPLINE
  5
14d
100
AcDbEntity
  8
0
 62
7
100
AcDbSpline
 70
8
 71
3
 72
8
 73
4
 74
0
 40
0
 40
0
 40
0
 40
0
 40
1
 40
1
 40
1
 40
1
 10
28.695758
 20
26.810580
 30
0.0
 10
27.713410
 20
27.377739
 30
0.0
 10
26.503107
 20
27.377739
 30
0.0
 10
25.520758
 20
26.810580
 30
0.0
  0
SPLINE
  5
14e
100
AcDbEntity
  8
0
 62
7
100
AcDbSpline
 70
8
 71
3
 72
8
 73
4
 74
0
 40
0
 40
0
 40
0
 40
0
 40
1
 40
1
 40
1
 40
1
 10
25.520758
 20
26.810580
 30
0.0
 10
24.538410
 20
26.243421
 30
0.0
 10
23.933258
 20
25.195267
 30
0.0
 10
23.933258
 20
24.060949
 30
0.0
  0
SPLINE
  5
14f
100
AcDbEntity
  8
0
 62
7
100
AcDbSpline
 70
8
 71
3
 72
8
 73
4
 74
0
 40
0
 40
0
 40
0
 40
0
 40
1
 40
1
 40
1
 40
1
 10
23.933258
 20
24.060949
 30
0.0
 10
23.933258
 20
22.926631
 30
0.0
 10
24.538410
 20
21.878478
 30
0.0
 10
25.520758
 20
21.311318
 30
0.0
  0
SPLINE
  5
150
100
AcDbEntity
  8
0
 62
7
100
AcDbSpline
 70
8
 71
3
 72
8
 73
4
 74
0
 40
0
 40
0
 40
0
 40
0
 40
1
 40
1
 40
1
 40
1
 10
25.520758
 20
21.311318
 30
0.0
 10
26.503107
 20
20.744159
 30
0.0
 10
27.713410
 20
20.744159
 30
0.0
 10
28.695758
 20
21.311318
 30
0.0
  0
SPLINE
  5
151
100
AcDbEntity
  8
0
 62
7
100
AcDbSpline
 70
8
 71
3
 72
8
 73
4
 74
0
 40
0
 40
0
 40
0
 40
0
 40
1
 40
1
 40
1
 40
1
 10
28.695758
 20
21.311318
 30
0.0
 10
29.678107
 20
21.878478
 30
0.0
 10
30.283258
 20
22.926631
 30
0.0
 10
30.283258
 20
24.060949
 30
0.0
  0
LWPOLYLINE
  5
152
100
AcDbEntity
  8
0
 62
7
100
AcDbPolyline
 90
1
 70
1
 10
141.408258
 20
17.710949
 30
0.0
  0
SPLINE
  5
153
100
AcDbEntity
  8
0
 62
7
100
AcDbSpline
 70
8
 71
3
 72
8
 73
4
 74
0
 40
0
 40
0
 40
0
 40
0
 40
1
 40
1
 40
1
 40
1
 10
71.558258
 20
49.460949
 30
0.0
 10
71.558258
 20
50.028108
 30
0.0
 10
71.255683
 20
50.552185
 30
0.0
 10
70.764508
 20
50.835764
 30
0.0
  0
SPLINE
  5
154
100
AcDbEntity
  8
0
 62
7
100
AcDbSpline
 70
8
 71
3
 72
8
 73
4
 74
0
 40
0
 40
0
 40
0
 40
0
 40
1
 40
1
 40
1
 40
1
 10
70.764508
 20
50.835764
 30
0.0
 10
70.273334
 20
51.119344
 30
0.0
 10
69.668183
 20
51.119344
 30
0.0
 10
69.177008
 20
50.835764
 30
0.0
  0
SPLINE
  5
155
100
AcDbEntity
  8
0
 62
7
100
AcDbSpline
 70
8
 71
3
 72
8
 73
4
 74
0
 40
0
 40
0
 40
0
 40
0
 40
1
 40
1
 40
1
 40
1
 10
69.177008
 20
50.835764
 30
0.0
 10
68.685834
 20
50.552185
 30
0.0
 10
68.383258
 20
50.028108
 30
0.0
 10
68.383258
 20
49.460949
 30
0.0
  0
SPLINE
  5
156
100
AcDbEntity
  8
0
 62
7
100
AcDbSpline
 70
8
 71
3
 72
8
 73
4
 74
0
 40
0
 40
0
 40
0
 40
0
 40
1
 40
1
 40
1
 40
1
 10
68.383258
 20
49.460949
 30
0.0
 10
68.383258
 20
48.893790
 30
0.0
 10
68.685834
 20
48.369713
 30
0.0
 10
69.177008
 20
48.086134
 30
0.0
  0
SPLINE
  5
157
100
AcDbEntity
  8
0
 62
7
100
AcDbSpline
 70
8
 71
3
 72
8
 73
4
 74
0
 40
0
 40
0
 40
0
 40
0
 40
1
 40
1
 40
1
 40
1
 10
69.177008
 20
48.086134
 30
0.0
 10
69.668183
 20
47.802554
 30
0.0
 10
70.273334
 20
47.802554
 30
0.0
 10
70.764508
 20
48.086134
 30
0.0
  0
SPLINE
  5
158
100
AcDbEntity
  8
0
 62
7
100
AcDbSpline
 70
8
 71
3
 72
8
 73
4
 74
0
 40
0
 40
0
 40
0
 40
0
 40
1
 40
1
 40
1
 40
1
 10
70.764508
 20
48.086134
 30
0.0
 10
71.255683
 20
48.369713
 30
0.0
 10
71.558258
 20
48.893790
 30
0.0
 10
71.558258
 20
49.460949
 30
0.0
  0
LWPOLYLINE
  5
159
100
AcDbEntity
  8
0
 62
7
100
AcDbPolyline
 90
1
 70
1
 10
30.283258
 20
24.060949
 30
0.0
  0
LWPOLYLINE
  5
15a
100
AcDbEntity
  8
0
 62
7
100
AcDbPolyline
 90
1
 70
1
 10
71.558258
 20
49.460949
 30
0.0
  0
LWPOLYLINE
  5
15b
100
AcDbEntity
  8
0
 62
7
100
AcDbPolyline
 90
2
 70
0
 10
254.120758
 20
81.210954
 30
0.0
 10
254.120758
 20
0.120761
 30
0.0
  0
LWPOLYLINE
  5
15c
100
AcDbEntity
  8
0
 62
7
100
AcDbPolyline
 90
2
 70
0
 10
0.120758
 20
81.210954
 30
0.0
 10
254.120758
 20
81.210954
 30
0.0
  0
LWPOLYLINE
  5
15d
100
AcDbEntity
  8
0
 62
7
100
AcDbPolyline
 90
2
 70
0
 10
0.120758
 20
0.120761
 30
0.0
 10
0.120758
 20
81.210954
 30
0.0
  0
SPLINE
  5
15e
100
AcDbEntity
  8
0
 62
7
100
AcDbSpline
 70
8
 71
3
 72
8
 73
4
 74
0
 40
0
 40
0
 40
0
 40
0
 40
1
 40
1
 40
1
 40
1
 10
15.432598
 20
66.923449
 30
0.0
 10
15.432598
 20
67.856569
 30
0.0
 10
14.934784
 20
68.718808
 30
0.0
 10
14.126678
 20
69.185369
 30
0.0
  0
SPLINE
  5
15f
100
AcDbEntity
  8
0
 62
7
100
AcDbSpline
 70
8
 71
3
 72
8
 73
4
 74
0
 40
0
 40
0
 40
0
 40
0
 40
1
 40
1
 40
1
 40
1
 10
14.126678
 20
69.185369
 30
0.0
 10
13.318572
 20
69.651929
 30
0.0
 10
12.322945
 20
69.651929
 30
0.0
 10
11.514839
 20
69.185369
 30
0.0
  0
SPLINE
  5
160
100
AcDbEntity
  8
0
 62
7
100
AcDbSpline
 70
8
 71
3
 72
8
 73
4
 74
0
 40
0
 40
0
 40
0
 40
0
 40
1
 40
1
 40
1
 40
1
 10
11.514839
 20
69.185369
 30
0.0
 10
10.706733
 20
68.718808
 30
0.0
 10
10.208919
 20
67.856569
 30
0.0
 10
10.208919
 20
66.923449
 30
0.0
  0
SPLINE
  5
161
100
AcDbEntity
  8
0
 62
7
100
AcDbSpline
 70
8
 71
3
 72
8
 73
4
 74
0
 40
0
 40
0
 40
0
 40
0
 40
1
 40
1
 40
1
 40
1
 10
10.208919
 20
66.923449
 30
0.0
 10
10.208919
 20
65.990329
 30
0.0
 10
10.706733
 20
65.128090
 30
0.0
 10
11.514839
 20
64.661530
 30
0.0
  0
SPLINE
  5
162
100
AcDbEntity
  8
0
 62
7
100
AcDbSpline
 70
8
 71
3
 72
8
 73
4
 74
0
 40
0
 40
0
 40
0
 40
0
 40
1
 40
1
 40
1
 40
1
 10
11.514839
 20
64.661530
 30
0.0
 10
12.322945
 20
64.194969
 30
0.0
 10
13.318572
 20
64.194969
 30
0.0
 10
14.126678
 20
64.661530
 30
0.0
  0
SPLINE
  5
163
100
AcDbEntity
  8
0
 62
7
100
AcDbSpline
 70
8
 71
3
 72
8
 73
4
 74
0
 40
0
 40
0
 40
0
 40
0
 40
1
 40
1
 40
1
 40
1
 10
14.126678
 20
64.661530
 30
0.0
 10
14.934784
 20
65.128090
 30
0.0
 10
15.432598
 20
65.990329
 30
0.0
 10
15.432598
 20
66.923449
 30
0.0
  0
LWPOLYLINE
  5
164
100
AcDbEntity
  8
0
 62
7
100
AcDbPolyline
 90
2
 70
0
 10
254.120758
 20
0.120761
 30
0.0
 10
0.120758
 20
0.120761
 30
0.0
  0
SPLINE
  5
165
100
AcDbEntity
  8
0
 62
7
100
AcDbSpline
 70
8
 71
3
 72
8
 73
4
 74
0
 40
0
 40
0
 40
0
 40
0
 40
1
 40
1
 40
1
 40
1
 10
244.032598
 20
12.820761
 30
0.0
 10
244.032598
 20
13.753882
 30
0.0
 10
243.534784
 20
14.616120
 30
0.0
 10
242.726678
 20
15.082681
 30
0.0
  0
SPLINE
  5
166
100
AcDbEntity
  8
0
 62
7
100
AcDbSpline
 70
8
 71
3
 72
8
 73
4
 74
0
 40
0
 40
0
 40
0
 40
0
 40
1
 40
1
 40
1
 40
1
 10
242.726678
 20
15.082681
 30
0.0
 10
241.918572
 20
15.549241
 30
0.0
 10
240.922945
 20
15.549241
 30
0.0
 10
240.114839
 20
15.082681
 30
0.0
  0
SPLINE
  5
167
100
AcDbEntity
  8
0
 62
7
100
AcDbSpline
 70
8
 71
3
 72
8
 73
4
 74
0
 40
0
 40
0
 40
0
 40
0
 40
1
 40
1
 40
1
 40
1
 10
240.114839
 20
15.082681
 30
0.0
 10
239.306733
 20
14.616120
 30
0.0
 10
238.808919
 20
13.753882
 30
0.0
 10
238.808919
 20
12.820761
 30
0.0
  0
SPLINE
  5
168
100
AcDbEntity
  8
0
 62
7
100
AcDbSpline
 70
8
 71
3
 72
8
 73
4
 74
0
 40
0
 40
0
 40
0
 40
0
 40
1
 40
1
 40
1
 40
1
 10
238.808919
 20
12.820761
 30
0.0
 10
238.808919
 20
11.887641
 30
0.0
 10
239.306733
 20
11.025402
 30
0.0
 10
240.114839
 20
10.558842
 30
0.0
  0
SPLINE
  5
169
100
AcDbEntity
  8
0
 62
7
100
AcDbSpline
 70
8
 71
3
 72
8
 73
4
 74
0
 40
0
 40
0
 40
0
 40
0
 40
1
 40
1
 40
1
 40
1
 10
240.114839
 20
10.558842
 30
0.0
 10
240.922945
 20
10.092281
 30
0.0
 10
241.918572
 20
10.092281
 30
0.0
 10
242.726678
 20
10.558842
 30
0.0
  0
SPLINE
  5
16a
100
AcDbEntity
  8
0
 62
7
100
AcDbSpline
 70
8
 71
3
 72
8
 73
4
 74
0
 40
0
 40
0
 40
0
 40
0
 40
1
 40
1
 40
1
 40
1
 10
242.726678
 20
10.558842
 30
0.0
 10
243.534784
 20
11.025402
 30
0.0
 10
244.032598
 20
11.887641
 30
0.0
 10
244.032598
 20
12.820761
 30
0.0
  0
LWPOLYLINE
  5
16b
100
AcDbEntity
  8
0
 62
7
100
AcDbPolyline
 90
1
 70
1
 10
15.432598
 20
66.923449
 30
0.0
  0
LWPOLYLINE
  5
16c
100
AcDbEntity
  8
0
 62
7
100
AcDbPolyline
 90
1
 70
1
 10
244.032598
 20
12.820761
 30
0.0
  0
ENDSEC
  0
SECTION
  2
OBJECTS
  0
DICTIONARY
  5
C
330
0
100
AcDbDictionary
  3
ACAD_GROUP
350
D
  3
ACAD_MLINESTYLE
350
17
  0
DICTIONARY
  5
D
330
C
100
AcDbDictionary
  0
DICTIONARY
  5
1A
330
C
100
AcDbDictionary
  0
DICTIONARY
  5
17
330
C
100
AcDbDictionary
  3
STANDARD
350
18
  0
DICTIONARY
  5
19
330
C
100
AcDbDictionary
  0
ENDSEC
  0
EOF
